<svg width="20" height="20" viewBox="0 0 20 20" fill="none" xmlns="http://www.w3.org/2000/svg">
<g clip-path="url(#clip0_4070_184)">
<path d="M10 20C15.5228 20 20 15.5228 20 10C20 4.47715 15.5228 0 10 0C4.47715 0 0 4.47715 0 10C0 15.5228 4.47715 20 10 20Z" fill="#F6D738"/>
<path d="M9.99999 18.4869C14.6872 18.4869 18.4869 14.6872 18.4869 10C18.4869 5.3128 14.6872 1.51307 9.99999 1.51307C5.31279 1.51307 1.51306 5.3128 1.51306 10C1.51306 14.6872 5.31279 18.4869 9.99999 18.4869Z" fill="#F3CC30"/>
<path d="M14.4403 2.75654C15.2853 4.07591 15.7754 5.64473 15.7754 7.32788C15.7754 12.0151 11.9757 15.8148 7.28846 15.8148C5.66074 15.8148 4.14011 15.3562 2.84814 14.5616C4.35649 16.9162 6.99586 18.4772 9.99964 18.4772C14.6869 18.4772 18.4866 14.6775 18.4866 9.99024C18.4866 6.93103 16.8677 4.25008 14.44 2.75654H14.4403Z" fill="#EDBD31"/>
<path d="M2.99969 10.7767C2.99969 6.63905 6.35371 3.28504 10.4913 3.28504C12.9099 3.28504 15.0602 4.43118 16.4299 6.20976C15.1364 3.96409 12.7115 2.45197 9.93355 2.45197C5.79591 2.45197 2.44189 5.80598 2.44189 9.94362C2.44189 11.6627 3.02142 13.2463 3.99497 14.5105C3.36189 13.4113 2.99937 12.1364 2.99937 10.7767H2.99969Z" fill="#F7DB5E"/>
<path d="M10.7005 4.5222V5.60346C11.1345 5.67338 11.4894 5.81669 11.765 6.0337C12.0409 6.25071 12.3036 6.58362 12.554 7.03212L11.4784 7.63338C11.1546 7.04504 10.7317 6.75086 10.2098 6.75086C9.88598 6.75086 9.61764 6.84661 9.40441 7.03779C9.19118 7.22897 9.08441 7.46803 9.08441 7.75496C9.08441 8.01606 9.17071 8.23307 9.34362 8.40598C9.51276 8.57512 9.8548 8.77543 10.3698 9.00724C10.8148 9.20945 11.1824 9.4 11.4731 9.57826C11.7635 9.75653 11.9824 9.9285 12.1294 10.0942C12.5449 10.543 12.7528 11.0854 12.7528 11.7216C12.7528 12.3578 12.5654 12.8986 12.1902 13.3764C11.8186 13.8507 11.3222 14.1707 10.7008 14.3364V15.4781H9.73543V14.3694C9.01449 14.2517 8.46488 14.0035 8.08598 13.6249C7.70709 13.246 7.42772 12.6614 7.24756 11.8705L8.4611 11.6167C8.62646 12.1757 8.82866 12.5748 9.06803 12.8139C9.31811 13.0419 9.65071 13.1559 10.0665 13.1559C10.4822 13.1559 10.8091 13.0255 11.0816 12.7641C11.3499 12.5068 11.4844 12.1739 11.4844 11.7657C11.4844 11.4016 11.3723 11.1093 11.148 10.8885C11.034 10.782 10.8658 10.6614 10.6431 10.5272C10.4205 10.3931 10.1364 10.2469 9.79087 10.0888C9.07748 9.76882 8.6085 9.47464 8.38425 9.2063C8.0274 8.80535 7.84913 8.32567 7.84913 7.76661C7.84913 7.50173 7.89134 7.25543 7.97606 7.0274C8.06079 6.79937 8.18299 6.59244 8.34299 6.40693C8.50299 6.22141 8.70079 6.06047 8.93606 5.92441C9.17134 5.78834 9.43811 5.68157 9.73575 5.60441V4.52315H10.7011L10.7005 4.5222Z" fill="#D49A34"/>
</g>
<defs>
<clipPath id="clip0_4070_184">
<rect width="20" height="20" fill="white"/>
</clipPath>
</defs>
</svg>
