<svg width="254" height="254" viewBox="0 0 254 254" fill="none" xmlns="http://www.w3.org/2000/svg">
<g clip-path="url(#clip0_4211_63960)">
<path d="M39.9376 158.252C42.2759 157.278 44.9873 158.379 45.9692 160.738C46.9511 163.097 45.842 165.788 43.4828 166.77C41.1237 167.751 38.4332 166.642 37.4513 164.283C36.4694 161.924 37.5785 159.234 39.9376 158.252Z" fill="url(#paint0_linear_4211_63960)"/>
<path d="M46.6759 172.911C48.8195 171.529 51.6546 172.162 53.0367 174.305C54.4187 176.449 53.7862 179.284 51.6426 180.666C49.499 182.048 46.6639 181.416 45.2818 179.272C43.8998 177.128 44.5323 174.293 46.6759 172.911Z" fill="url(#paint1_linear_4211_63960)"/>
<path d="M55.8639 186.159C57.7467 184.445 60.6586 184.556 62.373 186.438C64.0874 188.321 63.9767 191.233 62.0939 192.947C60.2111 194.662 57.2992 194.551 55.5848 192.668C53.8704 190.786 53.9811 187.874 55.8639 186.159Z" fill="url(#paint2_linear_4211_63960)"/>
<path d="M67.2148 197.601C68.7533 195.589 71.6497 195.192 73.6704 196.751C75.6824 198.289 76.0796 201.186 74.5202 203.207C72.9817 205.219 70.0853 205.616 68.0647 204.056C66.0527 202.518 65.6555 199.621 67.2148 197.601Z" fill="url(#paint3_linear_4211_63960)"/>
<path d="M80.3966 206.909C81.5664 204.658 84.3552 203.767 86.6056 204.937C88.8561 206.107 89.7473 208.895 88.5775 211.146C87.4077 213.396 84.6189 214.288 82.3685 213.118C80.1181 211.948 79.2268 209.159 80.3966 206.909Z" fill="url(#paint4_linear_4211_63960)"/>
<path d="M94.9725 213.799C95.7284 211.378 98.326 210.028 100.747 210.784C103.168 211.539 104.519 214.137 103.763 216.558C103.007 218.979 100.409 220.33 97.9883 219.574C95.5672 218.818 94.2166 216.22 94.9725 213.799Z" fill="url(#paint5_linear_4211_63960)"/>
<path d="M110.524 218.031C110.85 215.519 113.164 213.723 115.676 214.049C118.188 214.375 119.984 216.69 119.657 219.201C119.331 221.713 117.017 223.509 114.505 223.183C111.993 222.857 110.197 220.542 110.524 218.031Z" fill="url(#paint6_linear_4211_63960)"/>
<path d="M126.591 219.5C126.463 216.957 128.437 214.813 130.98 214.685C133.523 214.557 135.667 216.531 135.795 219.074C135.922 221.617 133.949 223.761 131.406 223.889C128.863 224.016 126.719 222.043 126.591 219.5Z" fill="url(#paint7_linear_4211_63960)"/>
<path d="M142.649 218.181C142.102 215.689 143.651 213.232 146.142 212.685C148.633 212.138 151.09 213.687 151.637 216.178C152.184 218.67 150.635 221.127 148.144 221.674C145.653 222.221 143.195 220.672 142.649 218.181Z" fill="url(#paint8_linear_4211_63960)"/>
<path d="M166.749 210.526C165.77 208.174 163.069 207.06 160.717 208.039C158.365 209.018 157.252 211.719 158.231 214.071C159.21 216.423 161.91 217.536 164.262 216.557C166.615 215.578 167.728 212.878 166.749 210.526Z" fill="url(#paint9_linear_4211_63960)"/>
<path d="M172.89 207.333C171.508 205.189 172.141 202.354 174.284 200.972C176.428 199.59 179.263 200.222 180.645 202.366C182.027 204.51 181.395 207.345 179.251 208.727C177.107 210.109 174.272 209.476 172.89 207.333Z" fill="url(#paint10_linear_4211_63960)"/>
<path d="M186.138 198.145C184.424 196.262 184.535 193.35 186.417 191.636C188.3 189.921 191.212 190.032 192.926 191.915C194.641 193.798 194.53 196.709 192.647 198.424C190.765 200.138 187.853 200.028 186.138 198.145Z" fill="url(#paint11_linear_4211_63960)"/>
<path d="M197.601 186.785C195.589 185.247 195.192 182.35 196.751 180.33C198.31 178.309 201.186 177.92 203.207 179.48C205.219 181.018 205.616 183.915 204.056 185.935C202.518 187.947 199.621 188.345 197.601 186.785Z" fill="url(#paint12_linear_4211_63960)"/>
<path d="M206.909 173.603C204.658 172.434 203.767 169.645 204.937 167.394C206.107 165.144 208.895 164.253 211.146 165.423C213.396 166.592 214.288 169.381 213.118 171.632C211.948 173.882 209.159 174.773 206.909 173.603Z" fill="url(#paint13_linear_4211_63960)"/>
<path d="M213.778 159.036C211.357 158.28 210.007 155.683 210.763 153.262C211.518 150.841 214.116 149.49 216.537 150.246C218.958 151.002 220.309 153.599 219.553 156.02C218.797 158.441 216.199 159.792 213.778 159.036Z" fill="url(#paint14_linear_4211_63960)"/>
<path d="M218.031 143.476C215.519 143.15 213.723 140.836 214.049 138.324C214.376 135.812 216.69 134.016 219.201 134.343C221.713 134.669 223.509 136.983 223.183 139.495C222.857 142.007 220.542 143.803 218.031 143.476Z" fill="url(#paint15_linear_4211_63960)"/>
<path d="M219.5 127.409C216.957 127.537 214.813 125.564 214.685 123.02C214.557 120.477 216.531 118.333 219.074 118.205C221.617 118.078 223.761 120.051 223.889 122.594C224.016 125.138 222.043 127.282 219.5 127.409Z" fill="url(#paint16_linear_4211_63960)"/>
<path d="M218.181 111.352C215.689 111.898 213.232 110.349 212.685 107.858C212.138 105.367 213.687 102.91 216.178 102.363C218.67 101.816 221.127 103.365 221.674 105.856C222.221 108.347 220.672 110.805 218.181 111.352Z" fill="url(#paint17_linear_4211_63960)"/>
<path d="M216.557 89.7377C215.578 87.3856 212.878 86.2724 210.526 87.2514C208.174 88.2304 207.06 90.9308 208.039 93.283C209.018 95.6351 211.719 96.7483 214.071 95.7693C216.423 94.7903 217.536 92.0899 216.557 89.7377Z" fill="url(#paint18_linear_4211_63960)"/>
<path d="M207.312 81.1184C205.168 82.5005 202.333 81.868 200.951 79.7244C199.569 77.5808 200.201 74.7457 202.345 73.3636C204.489 71.9815 207.324 72.6141 208.706 74.7577C210.088 76.9013 209.455 79.7364 207.312 81.1184Z" fill="url(#paint19_linear_4211_63960)"/>
<path d="M198.124 67.8704C196.241 69.5848 193.329 69.4741 191.615 67.5913C189.9 65.7085 190.011 62.7966 191.894 61.0822C193.777 59.3678 196.689 59.4785 198.403 61.3613C200.117 63.2441 200.007 66.156 198.124 67.8704Z" fill="url(#paint20_linear_4211_63960)"/>
<path d="M186.785 56.3992C185.247 58.4112 182.35 58.8084 180.33 57.2491C178.318 55.7106 177.92 52.8142 179.48 50.7935C181.039 48.7728 183.915 48.3843 185.935 49.9437C187.947 51.4822 188.345 54.3785 186.785 56.3992Z" fill="url(#paint21_linear_4211_63960)"/>
<path d="M173.603 47.0913C172.434 49.3417 169.645 50.233 167.394 49.0632C165.144 47.8934 164.253 45.1046 165.422 42.8542C166.592 40.6038 169.381 39.7125 171.631 40.8823C173.882 42.0521 174.773 44.8409 173.603 47.0913Z" fill="url(#paint22_linear_4211_63960)"/>
<path d="M159.036 40.2216C158.28 42.6427 155.683 43.9932 153.262 43.2374C150.841 42.4815 149.49 39.8839 150.246 37.4628C151.002 35.0417 153.599 33.6912 156.021 34.4471C158.442 35.2029 159.792 37.8005 159.036 40.2216Z" fill="url(#paint23_linear_4211_63960)"/>
<path d="M143.476 35.9694C143.15 38.4811 140.836 40.2771 138.324 39.9508C135.812 39.6246 134.016 37.3104 134.343 34.7987C134.669 32.287 136.983 30.491 139.495 30.8172C142.007 31.1435 143.803 33.4577 143.476 35.9694Z" fill="url(#paint24_linear_4211_63960)"/>
<path d="M127.409 34.5003C127.537 37.0434 125.563 39.1875 123.02 39.3152C120.477 39.4429 118.333 37.4695 118.205 34.9263C118.078 32.3831 120.051 30.2391 122.594 30.1114C125.137 29.9837 127.281 31.9571 127.409 34.5003Z" fill="url(#paint25_linear_4211_63960)"/>
<path d="M111.331 35.8281C111.878 38.3193 110.328 40.7766 107.837 41.3236C105.346 41.8705 102.889 40.3214 102.342 37.8303C101.795 35.3391 103.344 32.8818 105.835 32.3348C108.326 31.7879 110.784 33.337 111.331 35.8281Z" fill="url(#paint26_linear_4211_63960)" fill-opacity="0.4"/>
<path d="M91.5017 37.0881C88.9539 37.0875 86.8881 39.1524 86.8875 41.7002C86.887 44.248 88.9519 46.3138 91.4997 46.3143C94.0474 46.3149 96.1132 44.25 96.1138 41.7022C96.1144 39.1545 94.0494 37.0886 91.5017 37.0881Z" fill="url(#paint27_linear_4211_63960)" fill-opacity="0.4"/>
<path d="M81.0975 46.6969C82.4795 48.8404 81.847 51.6756 79.7034 53.0576C77.5598 54.4397 74.7247 53.8071 73.3426 51.6636C71.9606 49.52 72.5931 46.6848 74.7367 45.3028C76.8803 43.9207 79.7154 44.5533 81.0975 46.6969Z" fill="url(#paint28_linear_4211_63960)" fill-opacity="0.4"/>
<path d="M67.8496 55.8849C69.564 57.7677 69.4532 60.6795 67.5704 62.3939C65.6876 64.1083 62.7758 63.9976 61.0614 62.1148C59.347 60.232 59.4577 57.3202 61.3405 55.6058C63.2233 53.8914 66.1352 54.0021 67.8496 55.8849Z" fill="url(#paint29_linear_4211_63960)" fill-opacity="0.4"/>
<path d="M56.3992 67.2149C58.4111 68.7534 58.8084 71.6498 57.249 73.6705C55.7105 75.6825 52.8141 76.0797 50.7934 74.5203C48.7814 72.9818 48.3842 70.0854 49.9436 68.0647C51.4821 66.0528 54.3785 65.6555 56.3992 67.2149Z" fill="url(#paint30_linear_4211_63960)" fill-opacity="0.4"/>
<path d="M47.0912 80.3966C49.3416 81.5664 50.2329 84.3552 49.0631 86.6056C47.8933 88.8561 45.1045 89.7473 42.8541 88.5775C40.6037 87.4077 39.7124 84.619 40.8822 82.3685C42.052 80.1181 44.8408 79.2268 47.0912 80.3966Z" fill="url(#paint31_linear_4211_63960)" fill-opacity="0.4"/>
<path d="M40.2007 94.9726C42.6217 95.7285 43.9723 98.3261 43.2164 100.747C42.4606 103.168 39.863 104.519 37.4419 103.763C35.0208 103.007 33.6702 100.409 34.4261 97.9883C35.182 95.5673 37.7796 94.2167 40.2007 94.9726Z" fill="url(#paint32_linear_4211_63960)" fill-opacity="0.4"/>
<path d="M35.9693 110.524C38.481 110.85 40.277 113.164 39.9507 115.676C39.6245 118.188 37.3102 119.984 34.7985 119.657C32.2869 119.331 30.4909 117.017 30.8171 114.505C31.1434 111.993 33.4576 110.197 35.9693 110.524Z" fill="url(#paint33_linear_4211_63960)" fill-opacity="0.4"/>
<path d="M34.5003 126.591C37.0434 126.463 39.1875 128.436 39.3152 130.98C39.4429 133.523 37.4695 135.667 34.9263 135.795C32.3831 135.922 30.2391 133.949 30.1114 131.406C29.9837 128.863 31.9571 126.719 34.5003 126.591Z" fill="url(#paint34_linear_4211_63960)" fill-opacity="0.4"/>
<path d="M35.8281 142.669C38.3193 142.122 40.7766 143.672 41.3235 146.163C41.8705 148.654 40.3214 151.111 37.8302 151.658C35.3391 152.205 32.8818 150.656 32.3348 148.165C31.7878 145.674 33.3369 143.216 35.8281 142.669Z" fill="url(#paint35_linear_4211_63960)" fill-opacity="0.4"/>
</g>
<defs>
<linearGradient id="paint0_linear_4211_63960" x1="45.7182" y1="160.842" x2="38.3527" y2="163.908" gradientUnits="userSpaceOnUse">
<stop stop-color="#5235E8"/>
<stop offset="1" stop-color="#907CFD"/>
</linearGradient>
<linearGradient id="paint1_linear_4211_63960" x1="53.1625" y1="175.122" x2="45.8056" y2="178.184" gradientUnits="userSpaceOnUse">
<stop stop-color="#5235E8"/>
<stop offset="1" stop-color="#907CFD"/>
</linearGradient>
<linearGradient id="paint2_linear_4211_63960" x1="62.98" y1="187.888" x2="55.6271" y2="190.948" gradientUnits="userSpaceOnUse">
<stop stop-color="#5235E8"/>
<stop offset="1" stop-color="#907CFD"/>
</linearGradient>
<linearGradient id="paint3_linear_4211_63960" x1="74.8701" y1="198.738" x2="67.5145" y2="201.799" gradientUnits="userSpaceOnUse">
<stop stop-color="#5235E8"/>
<stop offset="1" stop-color="#907CFD"/>
</linearGradient>
<linearGradient id="paint4_linear_4211_63960" x1="88.4855" y1="207.363" x2="81.1375" y2="210.421" gradientUnits="userSpaceOnUse">
<stop stop-color="#5235E8"/>
<stop offset="1" stop-color="#907CFD"/>
</linearGradient>
<linearGradient id="paint5_linear_4211_63960" x1="103.366" y1="213.515" x2="96.0181" y2="216.573" gradientUnits="userSpaceOnUse">
<stop stop-color="#5235E8"/>
<stop offset="1" stop-color="#907CFD"/>
</linearGradient>
<linearGradient id="paint6_linear_4211_63960" x1="119.089" y1="216.952" x2="111.741" y2="220.01" gradientUnits="userSpaceOnUse">
<stop stop-color="#5235E8"/>
<stop offset="1" stop-color="#907CFD"/>
</linearGradient>
<linearGradient id="paint7_linear_4211_63960" x1="135.194" y1="217.622" x2="127.841" y2="220.682" gradientUnits="userSpaceOnUse">
<stop stop-color="#5235E8"/>
<stop offset="1" stop-color="#907CFD"/>
</linearGradient>
<linearGradient id="paint8_linear_4211_63960" x1="151.146" y1="215.513" x2="143.789" y2="218.575" gradientUnits="userSpaceOnUse">
<stop stop-color="#5235E8"/>
<stop offset="1" stop-color="#907CFD"/>
</linearGradient>
<linearGradient id="paint9_linear_4211_63960" x1="166.498" y1="210.63" x2="159.132" y2="213.696" gradientUnits="userSpaceOnUse">
<stop stop-color="#5235E8"/>
<stop offset="1" stop-color="#907CFD"/>
</linearGradient>
<linearGradient id="paint10_linear_4211_63960" x1="180.771" y1="203.183" x2="173.414" y2="206.245" gradientUnits="userSpaceOnUse">
<stop stop-color="#5235E8"/>
<stop offset="1" stop-color="#907CFD"/>
</linearGradient>
<linearGradient id="paint11_linear_4211_63960" x1="193.533" y1="193.365" x2="186.181" y2="196.425" gradientUnits="userSpaceOnUse">
<stop stop-color="#5235E8"/>
<stop offset="1" stop-color="#907CFD"/>
</linearGradient>
<linearGradient id="paint12_linear_4211_63960" x1="204.406" y1="181.467" x2="197.051" y2="184.528" gradientUnits="userSpaceOnUse">
<stop stop-color="#5235E8"/>
<stop offset="1" stop-color="#907CFD"/>
</linearGradient>
<linearGradient id="paint13_linear_4211_63960" x1="213.026" y1="167.849" x2="205.678" y2="170.907" gradientUnits="userSpaceOnUse">
<stop stop-color="#5235E8"/>
<stop offset="1" stop-color="#907CFD"/>
</linearGradient>
<linearGradient id="paint14_linear_4211_63960" x1="219.156" y1="152.977" x2="211.808" y2="156.035" gradientUnits="userSpaceOnUse">
<stop stop-color="#5235E8"/>
<stop offset="1" stop-color="#907CFD"/>
</linearGradient>
<linearGradient id="paint15_linear_4211_63960" x1="222.614" y1="137.245" x2="215.267" y2="140.304" gradientUnits="userSpaceOnUse">
<stop stop-color="#5235E8"/>
<stop offset="1" stop-color="#907CFD"/>
</linearGradient>
<linearGradient id="paint16_linear_4211_63960" x1="223.288" y1="121.142" x2="215.935" y2="124.202" gradientUnits="userSpaceOnUse">
<stop stop-color="#5235E8"/>
<stop offset="1" stop-color="#907CFD"/>
</linearGradient>
<linearGradient id="paint17_linear_4211_63960" x1="221.183" y1="105.191" x2="213.826" y2="108.253" gradientUnits="userSpaceOnUse">
<stop stop-color="#5235E8"/>
<stop offset="1" stop-color="#907CFD"/>
</linearGradient>
<linearGradient id="paint18_linear_4211_63960" x1="216.306" y1="89.8422" x2="208.941" y2="92.9078" gradientUnits="userSpaceOnUse">
<stop stop-color="#5235E8"/>
<stop offset="1" stop-color="#907CFD"/>
</linearGradient>
<linearGradient id="paint19_linear_4211_63960" x1="208.832" y1="75.5748" x2="201.475" y2="78.6368" gradientUnits="userSpaceOnUse">
<stop stop-color="#5235E8"/>
<stop offset="1" stop-color="#907CFD"/>
</linearGradient>
<linearGradient id="paint20_linear_4211_63960" x1="199.01" y1="62.811" x2="191.657" y2="65.8713" gradientUnits="userSpaceOnUse">
<stop stop-color="#5235E8"/>
<stop offset="1" stop-color="#907CFD"/>
</linearGradient>
<linearGradient id="paint21_linear_4211_63960" x1="187.135" y1="51.9305" x2="179.779" y2="54.9919" gradientUnits="userSpaceOnUse">
<stop stop-color="#5235E8"/>
<stop offset="1" stop-color="#907CFD"/>
</linearGradient>
<linearGradient id="paint22_linear_4211_63960" x1="173.511" y1="43.3086" x2="166.163" y2="46.3669" gradientUnits="userSpaceOnUse">
<stop stop-color="#5235E8"/>
<stop offset="1" stop-color="#907CFD"/>
</linearGradient>
<linearGradient id="paint23_linear_4211_63960" x1="158.64" y1="37.178" x2="151.292" y2="40.2363" gradientUnits="userSpaceOnUse">
<stop stop-color="#5235E8"/>
<stop offset="1" stop-color="#907CFD"/>
</linearGradient>
<linearGradient id="paint24_linear_4211_63960" x1="142.908" y1="33.7199" x2="135.56" y2="36.7781" gradientUnits="userSpaceOnUse">
<stop stop-color="#5235E8"/>
<stop offset="1" stop-color="#907CFD"/>
</linearGradient>
<linearGradient id="paint25_linear_4211_63960" x1="126.808" y1="33.048" x2="119.456" y2="36.1083" gradientUnits="userSpaceOnUse">
<stop stop-color="#5235E8"/>
<stop offset="1" stop-color="#907CFD"/>
</linearGradient>
<linearGradient id="paint26_linear_4211_63960" x1="110.84" y1="35.163" x2="103.483" y2="38.225" gradientUnits="userSpaceOnUse">
<stop stop-color="#5235E8"/>
<stop offset="1" stop-color="#907CFD"/>
</linearGradient>
<linearGradient id="paint27_linear_4211_63960" x1="91.5016" y1="37.36" x2="91.4999" y2="45.3379" gradientUnits="userSpaceOnUse">
<stop stop-color="#5235E8"/>
<stop offset="1" stop-color="#907CFD"/>
</linearGradient>
<linearGradient id="paint28_linear_4211_63960" x1="81.2233" y1="47.514" x2="73.8664" y2="50.576" gradientUnits="userSpaceOnUse">
<stop stop-color="#5235E8"/>
<stop offset="1" stop-color="#907CFD"/>
</linearGradient>
<linearGradient id="paint29_linear_4211_63960" x1="68.4565" y1="57.3346" x2="61.1037" y2="60.3949" gradientUnits="userSpaceOnUse">
<stop stop-color="#5235E8"/>
<stop offset="1" stop-color="#907CFD"/>
</linearGradient>
<linearGradient id="paint30_linear_4211_63960" x1="57.5988" y1="69.2017" x2="50.2433" y2="72.2632" gradientUnits="userSpaceOnUse">
<stop stop-color="#5235E8"/>
<stop offset="1" stop-color="#907CFD"/>
</linearGradient>
<linearGradient id="paint31_linear_4211_63960" x1="48.9711" y1="82.8229" x2="41.6231" y2="85.8812" gradientUnits="userSpaceOnUse">
<stop stop-color="#5235E8"/>
<stop offset="1" stop-color="#907CFD"/>
</linearGradient>
<linearGradient id="paint32_linear_4211_63960" x1="42.8197" y1="97.7036" x2="35.4717" y2="100.762" gradientUnits="userSpaceOnUse">
<stop stop-color="#5235E8"/>
<stop offset="1" stop-color="#907CFD"/>
</linearGradient>
<linearGradient id="paint33_linear_4211_63960" x1="39.3822" y1="113.426" x2="32.0345" y2="116.485" gradientUnits="userSpaceOnUse">
<stop stop-color="#5235E8"/>
<stop offset="1" stop-color="#907CFD"/>
</linearGradient>
<linearGradient id="paint34_linear_4211_63960" x1="38.7143" y1="129.527" x2="31.3615" y2="132.588" gradientUnits="userSpaceOnUse">
<stop stop-color="#5235E8"/>
<stop offset="1" stop-color="#907CFD"/>
</linearGradient>
<linearGradient id="paint35_linear_4211_63960" x1="40.8325" y1="145.498" x2="33.4755" y2="148.56" gradientUnits="userSpaceOnUse">
<stop stop-color="#5235E8"/>
<stop offset="1" stop-color="#907CFD"/>
</linearGradient>
<clipPath id="clip0_4211_63960">
<rect width="194" height="194" fill="white" transform="translate(74.7197 253.826) rotate(-112.597)"/>
</clipPath>
</defs>
</svg>
