<svg width="35" height="35" viewBox="0 0 35 35" fill="none" xmlns="http://www.w3.org/2000/svg">
<mask id="mask0_4211_62830" style="mask-type:alpha" maskUnits="userSpaceOnUse" x="0" y="0" width="35" height="35">
<rect width="35" height="35" fill="#D9D9D9"/>
</mask>
<g mask="url(#mask0_4211_62830)">
<path d="M20.7461 21.6918L24.1689 23.5236V21.2048C24.1689 20.8792 24.1081 20.5942 23.9897 20.3672L22.5105 17.5412C22.1925 16.9338 21.5036 16.8257 20.7461 17.2641V21.6902V21.6918Z" fill="url(#paint0_linear_4211_62830)"/>
<path d="M13.0042 21.6918L9.58142 23.5236V21.2048C9.58142 20.8792 9.64221 20.5942 9.76067 20.3672L11.2398 17.5412C11.5578 16.9338 12.2467 16.8257 13.0042 17.2641V21.6902V21.6918Z" fill="url(#paint1_linear_4211_62830)"/>
<path style="mix-blend-mode:screen" d="M18.6948 29.5294C18.6948 31.4755 17.8796 36.5685 16.8758 36.5685C15.8721 36.5685 15.0569 31.4755 15.0569 29.5294C15.0569 27.8166 15.8721 27.4032 16.8758 27.4032C17.8796 27.4032 18.6948 27.8166 18.6948 29.5294Z" fill="url(#paint2_linear_4211_62830)"/>
<path style="mix-blend-mode:screen" d="M18.5982 29.5059C18.5982 31.405 17.8267 36.4495 16.8759 36.4495C15.9251 36.4495 15.1536 31.405 15.1536 29.5059C15.1536 27.8338 15.9251 27.4314 16.8759 27.4314C17.8267 27.4314 18.5982 27.8338 18.5982 29.5059Z" fill="url(#paint3_linear_4211_62830)"/>
<path style="mix-blend-mode:screen" d="M18.5 29.4824C18.5 31.3361 17.7721 36.3321 16.8743 36.3321C15.9765 36.3321 15.2487 31.3361 15.2487 29.4824C15.2487 27.851 15.9765 27.458 16.8743 27.458C17.7721 27.458 18.5 27.851 18.5 29.4824Z" fill="url(#paint4_linear_4211_62830)"/>
<path style="mix-blend-mode:screen" d="M18.4033 29.4589C18.4033 31.2657 17.7191 36.2131 16.8759 36.2131C16.0326 36.2131 15.3484 31.2657 15.3484 29.4589C15.3484 27.8682 16.0326 27.4846 16.8759 27.4846C17.7191 27.4846 18.4033 27.8682 18.4033 29.4589Z" fill="url(#paint5_linear_4211_62830)"/>
<path style="mix-blend-mode:screen" d="M18.3066 29.4339C18.3066 31.1952 17.666 36.0926 16.8758 36.0926C16.0856 36.0926 15.4449 31.1937 15.4449 29.4339C15.4449 27.8839 16.0856 27.5097 16.8758 27.5097C17.666 27.5097 18.3066 27.8839 18.3066 29.4339Z" fill="url(#paint6_linear_4211_62830)"/>
<path style="mix-blend-mode:screen" d="M18.2085 29.4104C18.2085 31.1248 17.6115 35.9751 16.8742 35.9751C16.137 35.9751 15.54 31.1248 15.54 29.4104C15.54 27.9011 16.137 27.5379 16.8742 27.5379C17.6115 27.5379 18.2085 27.9011 18.2085 29.4104Z" fill="url(#paint7_linear_4211_62830)"/>
<path style="mix-blend-mode:screen" d="M18.1118 29.3869C18.1118 31.0559 17.5585 35.8562 16.8758 35.8562C16.1931 35.8562 15.6398 31.0543 15.6398 29.3869C15.6398 27.9183 16.1931 27.5645 16.8758 27.5645C17.5585 27.5645 18.1118 27.9183 18.1118 29.3869Z" fill="url(#paint8_linear_4211_62830)"/>
<path style="mix-blend-mode:screen" d="M18.0152 29.3634C18.0152 30.9854 17.5055 35.7387 16.8758 35.7387C16.2461 35.7387 15.7365 30.9854 15.7365 29.3634C15.7365 27.9355 16.2461 27.5911 16.8758 27.5911C17.5055 27.5911 18.0152 27.9355 18.0152 29.3634Z" fill="url(#paint9_linear_4211_62830)"/>
<path style="mix-blend-mode:screen" d="M17.917 29.3399C17.917 30.915 17.451 35.6197 16.8743 35.6197C16.2976 35.6197 15.8315 30.9165 15.8315 29.3399C15.8315 27.9528 16.2976 27.6193 16.8743 27.6193C17.451 27.6193 17.917 27.9528 17.917 29.3399Z" fill="url(#paint10_linear_4211_62830)"/>
<path style="mix-blend-mode:screen" d="M17.8204 29.3164C17.8204 30.8461 17.398 35.5007 16.8758 35.5007C16.3537 35.5007 15.9313 30.8461 15.9313 29.3164C15.9313 27.97 16.3537 27.6459 16.8758 27.6459C17.398 27.6459 17.8204 27.97 17.8204 29.3164Z" fill="url(#paint11_linear_4211_62830)"/>
<path style="mix-blend-mode:screen" d="M17.7238 29.293C17.7238 30.7756 17.3435 35.3833 16.8759 35.3833C16.4083 35.3833 16.028 30.7772 16.028 29.293C16.028 27.9872 16.4083 27.6725 16.8759 27.6725C17.3435 27.6725 17.7238 27.9872 17.7238 29.293Z" fill="url(#paint12_linear_4211_62830)"/>
<path style="mix-blend-mode:screen" d="M17.6256 29.2695C17.6256 30.7068 17.2889 35.2644 16.8743 35.2644C16.4597 35.2644 16.123 30.7068 16.123 29.2695C16.123 28.0045 16.4597 27.6992 16.8743 27.6992C17.2889 27.6992 17.6256 28.0045 17.6256 29.2695Z" fill="url(#paint13_linear_4211_62830)"/>
<path d="M18.5046 26.813H15.2455V27.2748C15.2455 27.2748 15.2455 27.2842 15.2455 27.2873C15.2455 27.8134 15.9749 28.2408 16.8758 28.2408C17.7767 28.2408 18.5062 27.8134 18.5062 27.2873C18.5062 27.2827 18.5062 27.278 18.5062 27.2748V26.813H18.5046Z" fill="url(#paint14_linear_4211_62830)"/>
<path d="M20.7678 22.7173H12.9823V25.0407C12.9823 25.0517 12.9823 25.0611 12.9823 25.072C12.9823 26.3292 14.7249 27.3485 16.8758 27.3485C19.0268 27.3485 20.7693 26.3292 20.7693 25.072C20.7693 25.0611 20.7693 25.0517 20.7693 25.0407V22.7173H20.7678Z" fill="url(#paint15_linear_4211_62830)"/>
<g style="mix-blend-mode:multiply" opacity="0.5">
<path d="M20.7678 22.7987H12.9823V24.6508C12.9823 24.6587 12.9823 24.6681 12.9823 24.6759C12.9823 25.6779 14.7249 26.492 16.8758 26.492C19.0268 26.492 20.7693 25.6795 20.7693 24.6759C20.7693 24.6681 20.7693 24.6587 20.7693 24.6508V22.7987H20.7678Z" fill="#C7BCD6"/>
</g>
<path d="M22.9624 15.0253C23.3567 11.7108 22.593 8.33996 20.7055 5.59225C20.626 5.47639 20.5449 5.3621 20.4623 5.24937L16.8759 0.312897L13.2878 5.24937C13.2052 5.3621 13.1242 5.47639 13.0447 5.59225C11.1572 8.33996 10.3934 11.7108 10.7878 15.0253L11.7043 22.722H11.7058C11.7058 22.7361 11.7043 22.7501 11.7043 22.7642C11.7043 24.4348 14.0189 25.7891 16.8743 25.7891C19.7298 25.7891 22.0444 24.4348 22.0444 22.7642C22.0444 22.7501 22.0444 22.7361 22.0428 22.722H22.0444L22.9608 15.0253H22.9624Z" fill="url(#paint16_linear_4211_62830)"/>
<path d="M20.4623 5.24937L16.8759 0.312897L13.2879 5.24937C13.2676 5.27755 13.2489 5.30574 13.2286 5.33235C13.849 6.14962 15.2487 6.71951 16.8759 6.71951C18.5031 6.71951 19.9012 6.14962 20.5216 5.33235C20.5013 5.30417 20.4826 5.27599 20.4623 5.24937Z" fill="url(#paint17_linear_4211_62830)"/>
<path style="mix-blend-mode:color-dodge" opacity="0.7" d="M19.3043 10.7479C18.2756 6.59895 16.1465 1.8206 16.653 1.59045C17.5446 1.18495 21.2651 5.83805 22.2938 9.987C23.1994 13.6397 22.1784 22.7329 21.237 22.9678C20.2956 23.2026 20.2099 14.4006 19.3043 10.7479Z" fill="url(#paint18_radial_4211_62830)"/>
<path d="M16.0919 17.07C16.0919 17.7886 15.8456 18.2959 15.445 18.5432C15.4325 18.5511 15.06 18.789 15.0476 18.7953C14.6298 19.0301 14.8979 18.4978 14.2636 18.1299C12.9886 17.3909 11.9552 15.5998 11.9552 14.1297C11.9552 13.4032 11.2865 13.397 11.6965 13.1543C11.7074 13.148 12.1609 12.8975 12.1734 12.8913C12.5896 12.6642 13.1585 12.7065 13.7851 13.0697C15.06 13.8087 16.0934 15.5998 16.0934 17.07H16.0919Z" fill="url(#paint19_linear_4211_62830)"/>
<path d="M15.6367 17.3408C15.6367 18.811 14.6034 19.4028 13.3284 18.6638C12.0534 17.9248 11.02 16.1337 11.02 14.6636C11.02 13.1934 12.0534 12.6016 13.3284 13.3406C14.6034 14.0796 15.6367 15.8707 15.6367 17.3408Z" fill="url(#paint20_linear_4211_62830)"/>
<path d="M15.2019 17.0887C15.2019 18.2818 14.3618 18.7624 13.3268 18.1628C12.2919 17.5616 11.4518 16.1087 11.4518 14.9141C11.4518 13.7195 12.2919 13.2404 13.3268 13.84C14.3618 14.4397 15.2019 15.8942 15.2019 17.0887Z" fill="white"/>
<path style="mix-blend-mode:screen" d="M14.8123 16.4938C14.8123 17.3925 14.181 17.7542 13.4017 17.3017C12.6223 16.8492 11.9911 15.7549 11.9911 14.8577C11.9911 13.9606 12.6223 13.5974 13.4017 14.0499C14.181 14.5023 14.8123 15.5967 14.8123 16.4938Z" fill="url(#paint21_linear_4211_62830)"/>
<path d="M13.6962 18.0078C12.6613 17.4066 11.8212 15.9536 11.8212 14.759C11.8212 14.2095 12.0004 13.8103 12.2935 13.5989C11.7869 13.6913 11.4518 14.161 11.4518 14.914C11.4518 16.1071 12.2919 17.5616 13.3268 18.1628C13.8848 18.4868 14.3852 18.4962 14.7296 18.2489C14.4335 18.3037 14.0781 18.2301 13.6962 18.0078Z" fill="url(#paint22_linear_4211_62830)"/>
<path style="mix-blend-mode:color-dodge" d="M13.3954 13.2827C12.7844 12.9289 12.1515 12.9523 11.8585 13.0917C12.2435 12.9836 12.7875 13.0494 13.305 13.3484C14.5799 14.0874 15.6133 15.8785 15.6133 17.3487C15.6133 18.1143 15.2657 18.656 14.8184 18.8814C15.2891 18.7061 15.7037 18.1565 15.7037 17.2829C15.7037 15.8128 14.6703 14.0217 13.3954 13.2827Z" fill="url(#paint23_radial_4211_62830)"/>
<path style="mix-blend-mode:color-dodge" d="M14.7016 11.0219C15.936 6.04158 18.4938 0.306622 17.8859 0.0295029C16.8167 -0.457412 12.6083 5.17421 11.3738 10.1545C10.2875 14.5383 10.8018 19.694 11.9318 19.9774C13.0619 20.2592 13.6152 15.4073 14.7016 11.0235V11.0219Z" fill="url(#paint24_radial_4211_62830)"/>
<path d="M13.0431 24.87L10.3186 30.1102L9.76685 29.783V27.5645C9.76685 27.2529 9.82607 26.9116 9.9383 26.564L11.3536 22.2194C11.6575 21.2847 12.3168 20.4157 13.0416 19.9962L13.5715 20.3171L13.0416 24.87H13.0431Z" fill="url(#paint25_linear_4211_62830)"/>
<path d="M13.5933 25.1972L10.317 30.1118V27.8933C10.317 27.5817 10.3762 27.2404 10.4885 26.8928L11.9037 22.5482C12.2077 21.6135 12.867 20.7445 13.5917 20.325V25.1988L13.5933 25.1972Z" fill="url(#paint26_linear_4211_62830)"/>
<path style="mix-blend-mode:color-dodge" d="M10.3653 27.9528C10.3653 27.6412 10.4246 27.2999 10.5368 26.9523L11.9521 22.6077C12.2435 21.7137 12.8576 20.8839 13.545 20.4439V20.3109C12.8202 20.732 12.1609 21.5994 11.857 22.5341L10.4417 26.8787C10.3279 27.2263 10.2703 27.5676 10.2703 27.8792V30.0977L10.3669 29.9537V27.9512L10.3653 27.9528Z" fill="url(#paint27_radial_4211_62830)"/>
<path d="M20.7086 24.87L23.4331 30.1102L23.9848 29.783V27.5645C23.9848 27.2529 23.9256 26.9116 23.8134 26.564L22.3981 22.2194C22.0942 21.2847 21.4349 20.4157 20.7101 19.9962L20.1802 20.3171L20.7101 24.87H20.7086Z" fill="url(#paint28_linear_4211_62830)"/>
<path d="M20.1569 25.1972L23.4331 30.1118V27.8933C23.4331 27.5817 23.3739 27.2404 23.2617 26.8928L21.8464 22.5482C21.5425 21.6135 20.8832 20.7445 20.1584 20.325V25.1988L20.1569 25.1972Z" fill="url(#paint29_linear_4211_62830)"/>
<path style="mix-blend-mode:color-dodge" d="M23.3334 26.8912L21.9181 22.5466C21.6142 21.6119 20.9549 20.743 20.2301 20.3234V20.3515C20.8863 20.8025 21.4677 21.6041 21.7467 22.4652L23.1619 26.8098C23.2757 27.1574 23.3334 27.4987 23.3334 27.8103V29.8534L23.5048 30.1102V27.8917C23.5048 27.5801 23.4456 27.2388 23.3334 26.8912Z" fill="url(#paint30_radial_4211_62830)"/>
</g>
<defs>
<linearGradient id="paint0_linear_4211_62830" x1="20.7464" y1="20.2596" x2="24.1694" y2="20.2596" gradientUnits="userSpaceOnUse">
<stop stop-color="#2A1D6B"/>
<stop offset="1" stop-color="#5235E8"/>
</linearGradient>
<linearGradient id="paint1_linear_4211_62830" x1="9.58175" y1="20.2596" x2="13.0047" y2="20.2596" gradientUnits="userSpaceOnUse">
<stop stop-color="#2A1D6B"/>
<stop offset="1" stop-color="#5235E8"/>
</linearGradient>
<linearGradient id="paint2_linear_4211_62830" x1="16.8758" y1="28.5947" x2="16.8758" y2="34.9324" gradientUnits="userSpaceOnUse">
<stop stop-color="#F8299A"/>
<stop offset="0.1" stop-color="#C8217C"/>
<stop offset="0.23" stop-color="#94185C"/>
<stop offset="0.36" stop-color="#66103F"/>
<stop offset="0.49" stop-color="#410A28"/>
<stop offset="0.62" stop-color="#240616"/>
<stop offset="0.75" stop-color="#10020A"/>
<stop offset="0.88" stop-color="#040002"/>
<stop offset="1"/>
</linearGradient>
<linearGradient id="paint3_linear_4211_62830" x1="16.8759" y1="28.6025" x2="16.8759" y2="34.84" gradientUnits="userSpaceOnUse">
<stop stop-color="#F93A9B"/>
<stop offset="0.08" stop-color="#D53185"/>
<stop offset="0.22" stop-color="#9D2462"/>
<stop offset="0.36" stop-color="#6D1944"/>
<stop offset="0.49" stop-color="#46102B"/>
<stop offset="0.63" stop-color="#270918"/>
<stop offset="0.76" stop-color="#11040A"/>
<stop offset="0.88" stop-color="#040102"/>
<stop offset="1"/>
</linearGradient>
<linearGradient id="paint4_linear_4211_62830" x1="16.8759" y1="28.6104" x2="16.8759" y2="34.7461" gradientUnits="userSpaceOnUse">
<stop stop-color="#F94B9C"/>
<stop offset="0.05" stop-color="#E4448F"/>
<stop offset="0.2" stop-color="#A83269"/>
<stop offset="0.35" stop-color="#752349"/>
<stop offset="0.49" stop-color="#4B162F"/>
<stop offset="0.63" stop-color="#2A0C1A"/>
<stop offset="0.77" stop-color="#12050B"/>
<stop offset="0.89" stop-color="#040103"/>
<stop offset="1"/>
</linearGradient>
<linearGradient id="paint5_linear_4211_62830" x1="16.8759" y1="28.6182" x2="16.8759" y2="34.6537" gradientUnits="userSpaceOnUse">
<stop stop-color="#FA5C9E"/>
<stop offset="0.01" stop-color="#F55A9B"/>
<stop offset="0.17" stop-color="#B54272"/>
<stop offset="0.33" stop-color="#7E2E4F"/>
<stop offset="0.49" stop-color="#501D33"/>
<stop offset="0.64" stop-color="#2D101C"/>
<stop offset="0.77" stop-color="#14070C"/>
<stop offset="0.9" stop-color="#050103"/>
<stop offset="1"/>
</linearGradient>
<linearGradient id="paint6_linear_4211_62830" x1="16.8758" y1="28.6276" x2="16.8758" y2="34.5614" gradientUnits="userSpaceOnUse">
<stop stop-color="#FB6D9F"/>
<stop offset="0.14" stop-color="#C3547B"/>
<stop offset="0.32" stop-color="#883B56"/>
<stop offset="0.48" stop-color="#572637"/>
<stop offset="0.64" stop-color="#31151F"/>
<stop offset="0.78" stop-color="#16090E"/>
<stop offset="0.9" stop-color="#050203"/>
<stop offset="1"/>
</linearGradient>
<linearGradient id="paint7_linear_4211_62830" x1="16.8758" y1="28.6354" x2="16.8758" y2="34.469" gradientUnits="userSpaceOnUse">
<stop stop-color="#FB7EA0"/>
<stop offset="0.1" stop-color="#D56A87"/>
<stop offset="0.29" stop-color="#954A5F"/>
<stop offset="0.47" stop-color="#5F303D"/>
<stop offset="0.63" stop-color="#361B22"/>
<stop offset="0.78" stop-color="#180C0F"/>
<stop offset="0.91" stop-color="#060304"/>
<stop offset="1"/>
</linearGradient>
<linearGradient id="paint8_linear_4211_62830" x1="16.8758" y1="28.6432" x2="16.8758" y2="34.3766" gradientUnits="userSpaceOnUse">
<stop stop-color="#FC8FA1"/>
<stop offset="0.05" stop-color="#EA8595"/>
<stop offset="0.25" stop-color="#A45D69"/>
<stop offset="0.45" stop-color="#693C43"/>
<stop offset="0.62" stop-color="#3C2226"/>
<stop offset="0.78" stop-color="#1B0F11"/>
<stop offset="0.91" stop-color="#070404"/>
<stop offset="1"/>
</linearGradient>
<linearGradient id="paint9_linear_4211_62830" x1="16.8758" y1="28.651" x2="16.8758" y2="34.2842" gradientUnits="userSpaceOnUse">
<stop stop-color="#FCA0A2"/>
<stop offset="0.21" stop-color="#B67375"/>
<stop offset="0.42" stop-color="#764B4C"/>
<stop offset="0.61" stop-color="#432A2B"/>
<stop offset="0.78" stop-color="#1E1313"/>
<stop offset="0.91" stop-color="#080505"/>
<stop offset="1"/>
</linearGradient>
<linearGradient id="paint10_linear_4211_62830" x1="16.8758" y1="28.6589" x2="16.8758" y2="34.1919" gradientUnits="userSpaceOnUse">
<stop stop-color="#FDB1A3"/>
<stop offset="0.14" stop-color="#CE9085"/>
<stop offset="0.38" stop-color="#865D56"/>
<stop offset="0.59" stop-color="#4C3531"/>
<stop offset="0.77" stop-color="#221816"/>
<stop offset="0.91" stop-color="#090606"/>
<stop offset="1"/>
</linearGradient>
<linearGradient id="paint11_linear_4211_62830" x1="16.8758" y1="28.6667" x2="16.8758" y2="34.0979" gradientUnits="userSpaceOnUse">
<stop stop-color="#FEC2A5"/>
<stop offset="0.05" stop-color="#EEB69A"/>
<stop offset="0.32" stop-color="#9A7664"/>
<stop offset="0.56" stop-color="#584339"/>
<stop offset="0.76" stop-color="#281E1A"/>
<stop offset="0.91" stop-color="#0B0807"/>
<stop offset="1"/>
</linearGradient>
<linearGradient id="paint12_linear_4211_62830" x1="16.8759" y1="28.6745" x2="16.8759" y2="34.0055" gradientUnits="userSpaceOnUse">
<stop stop-color="#FED3A6"/>
<stop offset="0.23" stop-color="#B69777"/>
<stop offset="0.51" stop-color="#695744"/>
<stop offset="0.74" stop-color="#30281F"/>
<stop offset="0.91" stop-color="#0D0B08"/>
<stop offset="1"/>
</linearGradient>
<linearGradient id="paint13_linear_4211_62830" x1="16.8759" y1="28.6824" x2="16.8759" y2="33.9132" gradientUnits="userSpaceOnUse">
<stop stop-color="#FFE4A7"/>
<stop offset="0.1" stop-color="#E1C993"/>
<stop offset="0.43" stop-color="#827455"/>
<stop offset="0.71" stop-color="#3B3527"/>
<stop offset="0.9" stop-color="#100E0A"/>
<stop offset="1"/>
</linearGradient>
<linearGradient id="paint14_linear_4211_62830" x1="15.2611" y1="27.5269" x2="18.4688" y2="27.5269" gradientUnits="userSpaceOnUse">
<stop offset="0.02" stop-color="#45108A"/>
<stop offset="0.29" stop-color="#3D065F"/>
<stop offset="1" stop-color="#10054D"/>
</linearGradient>
<linearGradient id="paint15_linear_4211_62830" x1="12.983" y1="25.0323" x2="20.7705" y2="25.0323" gradientUnits="userSpaceOnUse">
<stop stop-color="#2A1D6B"/>
<stop offset="1" stop-color="#5235E8"/>
</linearGradient>
<linearGradient id="paint16_linear_4211_62830" x1="10.7472" y1="13.051" x2="22.9266" y2="13.051" gradientUnits="userSpaceOnUse">
<stop offset="0.01" stop-color="#D5D4F0"/>
<stop offset="1" stop-color="#7E65FF"/>
</linearGradient>
<linearGradient id="paint17_linear_4211_62830" x1="14.5" y1="3.50002" x2="19.5" y2="4.50002" gradientUnits="userSpaceOnUse">
<stop stop-color="#2A1D6B"/>
<stop offset="1" stop-color="#5235E8"/>
</linearGradient>
<radialGradient id="paint18_radial_4211_62830" cx="0" cy="0" r="1" gradientUnits="userSpaceOnUse" gradientTransform="translate(14.4869 13.3415) rotate(165.96) scale(2.37777 10.3791)">
<stop stop-color="#972A74"/>
<stop offset="0.02" stop-color="#8C276B"/>
<stop offset="0.11" stop-color="#671C4F"/>
<stop offset="0.21" stop-color="#471336"/>
<stop offset="0.32" stop-color="#2D0C22"/>
<stop offset="0.43" stop-color="#180613"/>
<stop offset="0.57" stop-color="#0A0308"/>
<stop offset="0.73" stop-color="#020001"/>
<stop offset="1"/>
</radialGradient>
<linearGradient id="paint19_linear_4211_62830" x1="12.3714" y1="12.7253" x2="15.7042" y2="18.4724" gradientUnits="userSpaceOnUse">
<stop stop-color="#5C1CCC"/>
<stop offset="0.03" stop-color="#6223CF"/>
<stop offset="0.07" stop-color="#7437D9"/>
<stop offset="0.12" stop-color="#9258E9"/>
<stop offset="0.14" stop-color="#A56EF4"/>
<stop offset="0.23" stop-color="#C994FF"/>
<stop offset="0.28" stop-color="#AE79EF"/>
<stop offset="0.38" stop-color="#7945D1"/>
<stop offset="0.54" stop-color="#4916A1"/>
<stop offset="0.62" stop-color="#4B16A4"/>
<stop offset="0.69" stop-color="#5219AF"/>
<stop offset="0.76" stop-color="#5D1EC0"/>
<stop offset="0.82" stop-color="#6B24D6"/>
<stop offset="0.94" stop-color="#5B1DBC"/>
<stop offset="1" stop-color="#531AB0"/>
</linearGradient>
<linearGradient id="paint20_linear_4211_62830" x1="11.0185" y1="16.0022" x2="15.6367" y2="16.0022" gradientUnits="userSpaceOnUse">
<stop offset="0.04" stop-color="#A56EF4"/>
<stop offset="0.36" stop-color="#C994FF"/>
<stop offset="0.54" stop-color="#B279F5"/>
<stop offset="0.91" stop-color="#7935DC"/>
<stop offset="1" stop-color="#6B24D6"/>
</linearGradient>
<linearGradient id="paint21_linear_4211_62830" x1="11.511" y1="13.2905" x2="13.9449" y2="16.3329" gradientUnits="userSpaceOnUse">
<stop stop-color="white"/>
<stop offset="1"/>
</linearGradient>
<linearGradient id="paint22_linear_4211_62830" x1="14.1077" y1="18.5917" x2="11.4794" y2="14.0584" gradientUnits="userSpaceOnUse">
<stop stop-color="#5C1CCC"/>
<stop offset="0.23" stop-color="#BA85FF"/>
<stop offset="0.38" stop-color="#7945D1"/>
<stop offset="0.54" stop-color="#4916A1"/>
<stop offset="0.61" stop-color="#4B16A4"/>
<stop offset="0.68" stop-color="#5219AF"/>
<stop offset="0.74" stop-color="#5D1EC0"/>
<stop offset="0.79" stop-color="#6B24D6"/>
<stop offset="0.93" stop-color="#5B1DBC"/>
<stop offset="1" stop-color="#531AB0"/>
</linearGradient>
<radialGradient id="paint23_radial_4211_62830" cx="0" cy="0" r="1" gradientUnits="userSpaceOnUse" gradientTransform="translate(13.7819 15.938) scale(2.47826 2.48937)">
<stop stop-color="white"/>
<stop offset="1"/>
</radialGradient>
<radialGradient id="paint24_radial_4211_62830" cx="0" cy="0" r="1" gradientUnits="userSpaceOnUse" gradientTransform="translate(8.22346 8.03222) rotate(14.0402) scale(2.23075 9.73732)">
<stop stop-color="#972A74"/>
<stop offset="0.02" stop-color="#8C276B"/>
<stop offset="0.11" stop-color="#671C4F"/>
<stop offset="0.21" stop-color="#471336"/>
<stop offset="0.32" stop-color="#2D0C22"/>
<stop offset="0.43" stop-color="#180613"/>
<stop offset="0.57" stop-color="#0A0308"/>
<stop offset="0.73" stop-color="#020001"/>
<stop offset="1"/>
</radialGradient>
<linearGradient id="paint25_linear_4211_62830" x1="10.4199" y1="29.0111" x2="13.6222" y2="19.2515" gradientUnits="userSpaceOnUse">
<stop offset="0.2" stop-color="#7734DC"/>
<stop offset="0.39" stop-color="#8C4EE7"/>
<stop offset="0.59" stop-color="#A56EF4"/>
<stop offset="0.67" stop-color="#BA8AFF"/>
<stop offset="0.8" stop-color="#A067F1"/>
<stop offset="1" stop-color="#9155EA"/>
</linearGradient>
<linearGradient id="paint26_linear_4211_62830" x1="10.3173" y1="25.2172" x2="13.5938" y2="25.2172" gradientUnits="userSpaceOnUse">
<stop stop-color="#2A1D6B"/>
<stop offset="1" stop-color="#5235E8"/>
</linearGradient>
<radialGradient id="paint27_radial_4211_62830" cx="0" cy="0" r="1" gradientUnits="userSpaceOnUse" gradientTransform="translate(13.8678 24.2235) scale(3.63724 3.65356)">
<stop stop-color="white"/>
<stop offset="1"/>
</radialGradient>
<linearGradient id="paint28_linear_4211_62830" x1="22.3514" y1="25.9206" x2="20.6042" y2="20.7759" gradientUnits="userSpaceOnUse">
<stop offset="0.04" stop-color="#6B24D6"/>
<stop offset="0.19" stop-color="#7633DB"/>
<stop offset="0.2" stop-color="#7734DC"/>
<stop offset="0.39" stop-color="#8C4EE7"/>
<stop offset="0.59" stop-color="#A56EF4"/>
<stop offset="0.67" stop-color="#BA8AFF"/>
<stop offset="0.8" stop-color="#A067F1"/>
<stop offset="1" stop-color="#9155EA"/>
</linearGradient>
<linearGradient id="paint29_linear_4211_62830" x1="20.1572" y1="25.2172" x2="23.4336" y2="25.2172" gradientUnits="userSpaceOnUse">
<stop stop-color="#2A1D6B"/>
<stop offset="1" stop-color="#5235E8"/>
</linearGradient>
<radialGradient id="paint30_radial_4211_62830" cx="0" cy="0" r="1" gradientUnits="userSpaceOnUse" gradientTransform="translate(20.2052 23.7913) scale(3.63478 3.65108)">
<stop stop-color="white"/>
<stop offset="1"/>
</radialGradient>
</defs>
</svg>
