<svg width="35" height="35" viewBox="0 0 35 35" fill="none" xmlns="http://www.w3.org/2000/svg">
<mask id="mask0_4211_62800" style="mask-type:alpha" maskUnits="userSpaceOnUse" x="0" y="0" width="35" height="35">
<rect width="35" height="35" fill="#D9D9D9"/>
</mask>
<g mask="url(#mask0_4211_62800)">
<g clip-path="url(#clip0_4211_62800)">
<path d="M17.5333 14.9794C20.8413 14.9794 23.523 12.2977 23.523 8.98971C23.523 5.68168 20.8413 3 17.5333 3C14.2253 3 11.5436 5.68168 11.5436 8.98971C11.5436 12.2977 14.2253 14.9794 17.5333 14.9794Z" fill="url(#paint0_radial_4211_62800)"/>
<path d="M26.8733 29.5347C24.337 31.2624 21.0824 31.7294 17.5333 31.7294C13.9842 31.7294 10.7296 31.2624 8.19334 29.5347C7.36933 28.9735 6.91926 28.008 7.01183 27.0152C7.66074 20.0573 12.9343 16.7728 17.5333 16.7728C22.1323 16.7728 27.4059 20.0573 28.0548 27.0152C28.1473 28.008 27.6973 28.9735 26.8733 29.5347Z" fill="url(#paint1_radial_4211_62800)"/>
</g>
</g>
<defs>
<radialGradient id="paint0_radial_4211_62800" cx="0" cy="0" r="1" gradientUnits="userSpaceOnUse" gradientTransform="translate(15.4224 7.5261) scale(9.40368 9.40368)">
<stop stop-color="#8D7BE8"/>
<stop offset="0.2" stop-color="#7966DA"/>
<stop offset="0.4" stop-color="#6554BF"/>
<stop offset="0.6" stop-color="#5235E8"/>
<stop offset="0.8" stop-color="#5235E8"/>
<stop offset="1" stop-color="#5235E8"/>
</radialGradient>
<radialGradient id="paint1_radial_4211_62800" cx="0" cy="0" r="1" gradientUnits="userSpaceOnUse" gradientTransform="translate(13.8212 22.4237) scale(16.5372 11.7408)">
<stop stop-color="#8D7BE8"/>
<stop offset="0.2" stop-color="#7966DA"/>
<stop offset="0.4" stop-color="#6554BF"/>
<stop offset="0.6" stop-color="#5235E8"/>
<stop offset="0.8" stop-color="#5235E8"/>
<stop offset="1" stop-color="#5235E8"/>
</radialGradient>
<clipPath id="clip0_4211_62800">
<rect width="21.0669" height="28.7294" fill="white" transform="translate(7 3)"/>
</clipPath>
</defs>
</svg>
